<svg xmlns="http://www.w3.org/2000/svg" width="128" height="32" viewBox="0 0 128 32" fill="none">
  <path
    d="M24.992 22.8576V26.6016C24.3584 26.8128 23.744 26.9184 23.1488 26.9184C21.824 26.9184 20.72 26.5056 19.8368 25.68C18.9728 24.8544 18.5408 23.616 18.5408 21.9648V10.128H23.7248V21.1296C23.7248 22.1664 24.1472 22.7424 24.992 22.8576ZM26.144 24.4704V10.128H31.328V26.688H26.9216L26.144 24.4704Z"
    fill="#60646C" />
  <path d="M38.8032 26.688H33.6192V5.6352L38.8032 4.944V26.688Z" fill="#60646C" />
  <path d="M46.2844 26.688H41.1004V5.6352L46.2844 4.944V26.688Z" fill="#60646C" />
  <path
    d="M69.7114 14.016V10.128H71.8714V6.4992H77.0554V10.128H80.1946V14.016H69.7114ZM71.8714 15.1968H77.0554V21.1872C77.0554 21.7248 77.1898 22.1184 77.4586 22.368C77.7466 22.6176 78.1978 22.7424 78.8122 22.7424C79.1194 22.7424 79.3882 22.7328 79.6186 22.7136C79.849 22.6752 80.041 22.6368 80.1946 22.5984V26.4288C79.7338 26.5824 79.2442 26.7072 78.7258 26.8032C78.2266 26.9184 77.7178 26.976 77.1994 26.976C75.433 26.976 74.0986 26.6016 73.1962 25.8528C72.313 25.0848 71.8714 23.7216 71.8714 21.7632V15.1968Z"
    fill="#60646C" />
  <path
    d="M89.1674 26.9472V22.7136C89.8586 22.2528 90.2042 20.832 90.2042 18.4512C90.2042 16.0128 89.8586 14.5824 89.1674 14.16V9.9264C91.4714 10.0224 93.113 10.7424 94.0922 12.0864C95.0714 13.4112 95.561 15.5232 95.561 18.4224C95.561 21.3216 95.0714 23.4432 94.0922 24.7872C93.113 26.112 91.4714 26.832 89.1674 26.9472ZM87.7274 22.7424V26.9472C85.4234 26.832 83.7818 26.112 82.8026 24.7872C81.8234 23.4432 81.3338 21.3216 81.3338 18.4224C81.3338 15.5232 81.8234 13.4112 82.8026 12.0864C83.7818 10.7616 85.4234 10.0416 87.7274 9.9264V14.1312C87.3626 14.3616 87.0938 14.8224 86.921 15.5136C86.7674 16.2048 86.6906 17.184 86.6906 18.4512C86.6906 20.8896 87.0362 22.32 87.7274 22.7424Z"
    fill="#60646C" />
  <path
    d="M102.104 17.616H96.747C96.8238 16.1376 97.083 14.8992 97.5246 13.9008C97.9854 12.9024 98.5806 12.1152 99.3102 11.5392C100.059 10.944 100.885 10.5216 101.787 10.272C102.709 10.0224 103.659 9.8976 104.638 9.8976C105.31 9.8976 105.925 9.9456 106.481 10.0416C107.038 10.1376 107.614 10.2816 108.209 10.4736V16.9536H105.243L104.667 13.9584C103.88 13.9584 103.265 14.2272 102.824 14.7648C102.401 15.3024 102.161 16.2528 102.104 17.616ZM96.7182 19.0848H102.104C102.181 20.4672 102.488 21.4368 103.025 21.9936C103.582 22.5504 104.312 22.8288 105.214 22.8288C106.136 22.8096 107.173 22.656 108.325 22.368V26.4576C107.729 26.6304 107.029 26.7552 106.222 26.832C105.416 26.928 104.677 26.976 104.005 26.976C102.68 26.976 101.48 26.7552 100.405 26.3136C99.3294 25.8528 98.4654 25.0464 97.8126 23.8944C97.1598 22.7424 96.795 21.1392 96.7182 19.0848Z"
    fill="#60646C" />
  <path
    d="M115.303 12.288L110.119 22.9152V5.6352L115.303 4.944V12.288ZM115.332 26.688H109.831L117.924 10.128H123.454L115.332 26.688ZM117.55 25.4496L120.574 19.2L123.454 26.688H117.953L117.55 25.4496Z"
    fill="#60646C" />
  <path fill-rule="evenodd" clip-rule="evenodd"
    d="M60.2745 18.4224L62.6361 13.3824C62.2137 13.1904 61.8777 12.9984 61.6281 12.8064C61.3785 12.6144 61.2537 12.3648 61.2537 12.0576C61.2537 11.5008 61.4265 11.1264 61.7721 10.9344C62.1369 10.7232 62.6649 10.6176 63.3561 10.6176C64.0089 10.6176 64.6809 10.6464 65.3721 10.704C66.0633 10.7424 66.6393 10.7904 67.1001 10.848L67.8201 10.9344L68.3961 6.2976L67.6185 6.1536C67.1001 6.0384 66.4089 5.9328 65.5449 5.8368C64.6809 5.7408 63.7209 5.6928 62.6649 5.6928C60.1113 5.712 58.2777 6.2496 57.1641 7.3056C56.0697 8.3424 55.5225 9.9168 55.5225 12.0288C55.5225 13.68 55.8297 14.9376 56.4441 15.8016C57.0585 16.6656 57.9321 17.3568 59.0649 17.8752L60.2745 18.4224Z"
    fill="#60646C" />
  <path fill-rule="evenodd" clip-rule="evenodd"
    d="M11.0922 12H5.47618V26.688H11.0922V19.0848H15.009L15.873 14.4768H11.0922V12Z" fill="#60646C" />
  <path d="M5.73538 10.56L3.89218 5.952H17.2554L16.3914 10.56H5.73538Z" fill="#5B5BD6" />
  <path
    d="M61.5993 19.056L63.9897 13.9584L65.2281 14.5056C66.5337 15.0816 67.4841 15.8016 68.0793 16.6656C68.6745 17.5104 68.9721 18.72 68.9721 20.2944C68.9721 22.4256 68.4153 24.0672 67.3017 25.2192C66.1881 26.3712 64.3545 26.9568 61.8009 26.976C60.5337 26.976 59.3529 26.8896 58.2585 26.7168C57.1641 26.5632 56.1945 26.3808 55.3497 26.1696L55.9257 21.5328L56.6169 21.648C57.0969 21.7248 57.7305 21.8016 58.5177 21.8784C59.3049 21.9552 60.1689 21.9936 61.1097 21.9936C61.8393 21.9936 62.3865 21.888 62.7513 21.6768C63.1161 21.4656 63.2985 21.12 63.2985 20.64C63.2985 20.3136 63.2121 20.0544 63.0393 19.8624C62.8665 19.6704 62.5593 19.4784 62.1177 19.2864L61.5993 19.056Z"
    fill="#5B5BD6" />
</svg>