<svg width="46" height="41" viewBox="0 0 46 41" fill="none" xmlns="http://www.w3.org/2000/svg">
  <path fill-rule="evenodd" clip-rule="evenodd"
    d="M29.8865 23.208L32.8385 16.908C32.3105 16.668 31.8905 16.428 31.5785 16.188C31.2665 15.948 31.1105 15.636 31.1105 15.252C31.1105 14.556 31.3265 14.088 31.7585 13.848C32.2145 13.584 32.8745 13.452 33.7385 13.452C34.5545 13.452 35.3945 13.488 36.2585 13.56C37.1225 13.608 37.8425 13.668 38.4185 13.74L39.3185 13.848L40.0385 8.05199L39.0665 7.87199C38.4185 7.72799 37.5545 7.59599 36.4745 7.47599C35.3945 7.35599 34.1945 7.29599 32.8745 7.29599C29.6825 7.31999 27.3905 7.99199 25.9985 9.31199C24.6305 10.608 23.9465 12.576 23.9465 15.216C23.9465 17.28 24.3305 18.852 25.0985 19.932C25.8665 21.012 26.9585 21.876 28.3745 22.524L29.8865 23.208Z"
    fill="#60646C" />
  <path fill-rule="evenodd" clip-rule="evenodd"
    d="M14.7305 15.18H7.71047V33.54H14.7305V24.036H19.6265L20.7065 18.276H14.7305V15.18Z"
    fill="#60646C" />
  <path d="M8.03447 13.38L5.73047 7.61999H22.4345L21.3545 13.38H8.03447Z" fill="#5B5BD6" />
  <path
    d="M31.5425 24L34.5305 17.628L36.0785 18.312C37.7105 19.032 38.8985 19.932 39.6425 21.012C40.3865 22.068 40.7585 23.58 40.7585 25.548C40.7585 28.212 40.0625 30.264 38.6705 31.704C37.2785 33.144 34.9865 33.876 31.7945 33.9C30.2105 33.9 28.7345 33.792 27.3665 33.576C25.9985 33.384 24.7865 33.156 23.7305 32.892L24.4505 27.096L25.3145 27.24C25.9145 27.336 26.7065 27.432 27.6905 27.528C28.6745 27.624 29.7545 27.672 30.9305 27.672C31.8425 27.672 32.5265 27.54 32.9825 27.276C33.4385 27.012 33.6665 26.58 33.6665 25.98C33.6665 25.572 33.5585 25.248 33.3425 25.008C33.1265 24.768 32.7425 24.528 32.1905 24.288L31.5425 24Z"
    fill="#5B5BD6" />
</svg>